<svg width="500" height="500" viewBox="0 0 500 500" fill="none" xmlns="http://www.w3.org/2000/svg">
<path d="M402.458 122.258C424.09 104.133 427.185 71.3866 405.045 53.8844C368.493 24.9876 324.298 6.65985 277.309 1.49605C213.249 -5.54378 148.945 12.4266 97.8154 51.6573C46.6859 90.8879 12.6814 148.348 2.89769 212.047C-4.27879 258.771 1.98322 306.203 20.4325 348.991C31.6068 374.906 64.0384 380.394 87.1456 364.191V364.191C110.253 347.989 114.802 316.052 107.389 288.821C102.007 269.046 100.745 248.187 103.913 227.562C109.697 189.903 129.801 155.933 160.028 132.74C190.256 109.547 228.273 98.9225 266.145 103.084C286.887 105.364 306.709 111.982 324.416 122.301C348.8 136.51 380.825 140.384 402.458 122.258V122.258Z" fill="url(#paint0_linear_1106_8846)"/>
<path d="M82.5671 391.691C69.6414 402.63 67.9153 422.14 80.3527 433.631C121.079 471.258 173.42 494.488 229.253 499.138C295.329 504.64 360.884 483.669 411.497 440.837C462.11 398.005 493.635 336.822 499.138 270.747C503.787 214.913 489.534 159.451 459.161 113.062C449.886 98.8952 430.359 97.3705 417.433 108.309V108.309C404.507 119.247 403.149 138.497 411.852 153.023C432.021 186.683 441.328 226.047 438.03 265.658C433.877 315.526 410.084 361.703 371.885 394.029C333.686 426.355 284.211 442.182 234.342 438.03C194.731 434.731 157.449 419.041 127.588 393.582C114.702 382.597 95.4929 380.753 82.5671 391.691V391.691Z" fill="url(#paint1_linear_1106_8846)"/>
<path d="M144.848 376.007C139.351 376.007 134.036 373.832 130.103 369.897C125.585 365.379 123.387 359.042 124.137 352.697C124.819 346.939 141.935 210.579 238.255 114.261C334.575 17.9426 470.933 0.82582 476.69 0.144487C483.041 -0.60637 489.39 1.59614 493.907 6.12492C498.426 10.6537 500.616 17.004 499.848 23.3557C499.425 26.8611 488.92 110.144 439.145 192.652C436.118 197.668 431.121 201.181 425.377 202.329L383.799 210.644L395.188 222.035C403.077 229.923 403.362 242.623 395.835 250.857C395.02 251.748 394.214 252.644 393.407 253.539C391.013 256.196 388.538 258.945 385.735 261.747C289.416 358.065 153.058 375.182 147.3 375.863C146.482 375.959 145.662 376.007 144.848 376.007V376.007Z" fill="#FF5E82"/>
<path d="M493.89 6.10767L130.101 369.897C134.035 373.832 139.351 376.006 144.847 376.006C145.662 376.006 146.481 375.959 147.3 375.862C153.058 375.18 289.416 358.064 385.735 261.745C388.538 258.942 391.013 256.195 393.407 253.537C394.214 252.642 395.02 251.746 395.835 250.855C403.362 242.621 403.077 229.921 395.188 222.033L383.799 210.643L425.377 202.327C431.122 201.179 436.12 197.667 439.145 192.65C488.92 110.142 499.427 26.8591 499.848 23.3537C500.616 17.0034 498.426 10.6517 493.907 6.12296C493.901 6.1174 493.895 6.11323 493.89 6.10767V6.10767Z" fill="#B7457D"/>
<path d="M85.8564 435C80.5184 435 75.1818 432.965 71.1091 428.891C62.9636 420.745 62.9636 407.54 71.1091 399.394L267.753 202.752C275.898 194.606 289.105 194.606 297.249 202.752C305.394 210.897 305.394 224.103 297.249 232.248L100.605 428.891C96.5325 432.963 91.1945 435 85.8564 435V435Z" fill="#5E54AC"/>
<path d="M297.247 202.75L71.1086 428.889C75.1813 432.962 80.518 434.999 85.856 434.999C91.1927 434.999 96.5321 432.962 100.603 428.889L297.247 232.247C305.394 224.101 305.394 210.896 297.247 202.75V202.75Z" fill="#453D81"/>
<defs>
<linearGradient id="paint0_linear_1106_8846" x1="81.5" y1="310" x2="438" y2="161.5" gradientUnits="userSpaceOnUse">
<stop stop-color="#5CD7FF"/>
<stop offset="1" stop-color="#13B8EC"/>
</linearGradient>
<linearGradient id="paint1_linear_1106_8846" x1="436.5" y1="124" x2="131" y2="428.5" gradientUnits="userSpaceOnUse">
<stop stop-color="#13B8EC"/>
<stop offset="1" stop-color="#0B82A7"/>
<stop offset="1" stop-color="#0A6F8F"/>
</linearGradient>
</defs>
</svg>
